<svg width="93" height="93" viewBox="0 0 93 93" fill="none" xmlns="http://www.w3.org/2000/svg">
<g id="018-plus-symbol" clip-path="url(#clip0_55_760)">
<path id="Vector" d="M3.30962 49.8096C1.47884 49.8096 0.0236816 48.3071 0.0236816 46.4763C0.0236816 44.6456 1.47884 43.1904 3.30962 43.1904H43.1638V3.33326C43.1668 1.50248 44.6692 0 46.5 0C48.3308 0 49.786 1.50248 49.786 3.33326V43.1904H89.6401C91.4709 43.1904 92.9734 44.6456 92.9734 46.4763C92.9734 48.3071 91.4709 49.8096 89.6401 49.8096H49.786V89.6667C49.786 91.4975 48.3308 93 46.5 93C44.6692 93 43.1668 91.4975 43.1668 89.6667V49.8096H3.30962Z" fill="white"/>
</g>
<defs>
<clipPath id="clip0_55_760">
<rect width="93" height="93" fill="white"/>
</clipPath>
</defs>
</svg>
