<svg width="20" height="20" viewBox="0 0 20 20" fill="none" xmlns="http://www.w3.org/2000/svg">
<g clip-path="url(#clip0_14_347)">
<path d="M0.229141 9.44699C0.229376 9.44676 0.22957 9.44648 0.229843 9.44625L4.31203 5.38375C4.61785 5.07941 5.1125 5.08054 5.41691 5.3864C5.72129 5.69222 5.72012 6.18687 5.4143 6.49125L2.67352 9.21875H19.2188C19.6502 9.21875 20 9.56851 20 10C20 10.4315 19.6502 10.7812 19.2188 10.7812H2.67355L5.41426 13.5087C5.72008 13.8131 5.72125 14.3078 5.41687 14.6136C5.11246 14.9195 4.61777 14.9205 4.31199 14.6162L0.229805 10.5537C0.22957 10.5535 0.229374 10.5532 0.229101 10.553C-0.0768757 10.2476 -0.0758991 9.75136 0.229141 9.44699Z" fill="#666666"/>
</g>
<defs>
<clipPath id="clip0_14_347">
<rect width="20" height="20" fill="white" transform="matrix(-1 0 0 1 20 0)"/>
</clipPath>
</defs>
</svg>
